<svg width="1024" height="1024" viewBox="0 0 1024 1024" fill="none" xmlns="http://www.w3.org/2000/svg">
  <defs>
    <linearGradient id="logoGradient1024" x1="0%" y1="0%" x2="100%" y2="100%">
      <stop offset="0%" style="stop-color:#3B82F6;stop-opacity:1" />
      <stop offset="30%" style="stop-color:#2563EB;stop-opacity:0.95" />
      <stop offset="100%" style="stop-color:#1D4ED8;stop-opacity:0.8" />
    </linearGradient>
    <filter id="shadow1024" x="-50%" y="-50%" width="200%" height="200%">
      <feDropShadow dx="0" dy="16" stdDeviation="32" flood-color="rgba(0,0,0,0.3)"/>
    </filter>
    <filter id="innerShadow" x="-50%" y="-50%" width="200%" height="200%">
      <feOffset dx="0" dy="4"/>
      <feGaussianBlur stdDeviation="8" result="offset-blur"/>
      <feFlood flood-color="rgba(0,0,0,0.1)"/>
      <feComposite in2="offset-blur" operator="in"/>
    </filter>
  </defs>
  
  <!-- Outer container with rounded corners -->
  <rect x="64" y="64" width="896" height="896" rx="160" ry="160" fill="url(#logoGradient1024)" filter="url(#shadow1024)" />
  
  <!-- Inner light/bulb shape -->
  <rect x="256" y="256" width="512" height="512" rx="64" ry="64" fill="white" opacity="0.95" filter="url(#innerShadow)" />
  
  <!-- Light rays effect -->
  <g stroke="url(#logoGradient1024)" stroke-width="32" stroke-linecap="round" opacity="0.8">
    <!-- Vertical rays -->
    <line x1="512" y1="128" x2="512" y2="32" />
    <line x1="512" y1="992" x2="512" y2="896" />
    
    <!-- Horizontal rays -->
    <line x1="896" y1="512" x2="992" y2="512" />
    <line x1="128" y1="512" x2="32" y2="512" />
    
    <!-- Diagonal rays -->
    <line x1="823.68" y1="200.32" x2="897.44" y2="126.56" />
    <line x1="200.32" y1="823.68" x2="126.56" y2="897.44" />
    <line x1="823.68" y1="823.68" x2="897.44" y2="897.44" />
    <line x1="200.32" y1="200.32" x2="126.56" y2="126.56" />
  </g>
  
  <!-- Center highlight for depth -->
  <ellipse cx="512" cy="420" rx="120" ry="60" fill="white" opacity="0.4" />
  
  <!-- Additional light effect in center -->
  <circle cx="512" cy="512" r="180" fill="white" opacity="0.1" />
</svg>